<svg xmlns="http://www.w3.org/2000/svg" viewBox="-8 0 1025 1366" role="img" aria-label="Legendary Arena emblem (monochrome)">
  <title>Legendary Arena emblem</title>
  <g fill="currentColor">
    <path d="M0 0 C0.33 0 0.66 0 1 0 C1.379777 51.236842 1.700881 102.473765 1.943901 153.711448 C1.972677 159.768002 2.001936 165.824553 2.031494 171.881104 C2.03737 173.086794 2.043246 174.292484 2.0493 175.534711 C2.145448 195.02707 2.280676 214.51897 2.430486 234.010982 C2.583465 254.029128 2.694122 274.047191 2.76594 294.065795 C2.811536 306.406867 2.889673 318.746836 3.010177 331.087408 C3.089772 339.563369 3.128054 348.038907 3.134685 356.515237 C3.139699 361.397476 3.162118 366.27789 3.233885 371.159643 C3.763479 408.719811 3.763479 408.719811 -9 426 C-9.827446 427.209565 -10.651032 428.421784 -11.469846 429.63721 C-21.187523 443.639607 -33.905064 455.691454 -47.847656 465.371094 C-50 467 -50 467 -51 469 C-50.467617 469.210117 -49.935234 469.420234 -49.386719 469.636719 C-29.353648 481.079504 -16.663139 508.638174 -10.581543 529.827637 C-9.065135 535.492203 -7.942999 541.213106 -7 547 C-6.822109 548.05832 -6.644219 549.116641 -6.460938 550.207031 C-1.624599 590.004356 -4.36783 632.024851 -6 672 C-6.66 672 -7.32 672 -8 672 C-8.230576 671.095295 -8.461152 670.190589 -8.698715 669.258469 C-10.907749 660.59641 -13.127428 651.937136 -15.356719 643.280269 C-16.501608 638.833066 -17.643137 634.385066 -18.776123 629.934814 C-41.386556 541.172322 -41.386556 541.172322 -77.678955 518.932861 C-91.607226 510.86363 -106.627191 506.470574 -122 502 C-139.141435 497.012343 -156.105178 491.813743 -172.8125 485.5 C-173.158447 485.369306 -173.158447 485.369306 -174.909149 484.707916 C-190.907574 478.63864 -190.907574 478.63864 -194 474 C-190.167126 473.351422 -186.333623 472.706638 -182.5 472.0625 C-181.422344 471.880098 -180.344688 471.697695 -179.234375 471.509766 C-174.626573 470.737116 -170.03198 469.974838 -165.390625 469.433594 C-162.215838 469.027601 -159.901167 468.289408 -157 467 C-155.668739 466.658485 -154.335 466.326594 -153 466 C-121.435974 456.841243 -94.959201 447.305472 -71 424 C-70.168555 423.194336 -69.337109 422.388672 -68.480469 421.558594 C-51.414196 403.940907 -38.706481 379.860678 -35.0625 355.5625 C-34.903381 354.527947 -34.744263 353.493394 -34.580322 352.42749 C-32.969282 341.501877 -31.693068 330.533624 -30.4375 319.5625 C-30.337447 318.708748 -30.237393 317.854996 -30.134308 316.975372 C-29.323048 309.992355 -28.634847 303.001169 -28 296 C-27.968319 295.652926 -27.968319 295.652926 -27.807995 293.896519 C-25.179018 264.843644 -24.554172 235.957764 -24.677429 206.797241 C-24.690956 202.452379 -24.685571 198.107617 -24.680566 193.762743 C-24.612355 115.491349 -24.612355 115.491349 -42.6875 97 C-44.784275 94.973987 -46.838952 93.118485 -49.1875 91.390625 C-51.670118 89.485857 -52.243243 88.027027 -53 85 C-52.944538 80.402194 -52.189731 77.800111 -49.050781 74.535156 C-47.817629 73.363827 -46.570865 72.2067 -45.3125 71.0625 C-44.018835 69.827667 -42.728414 68.589426 -41.441406 67.347656 C-41.137268 67.055764 -41.137268 67.055764 -39.598145 65.578613 C-36.635737 62.65241 -34.342798 59.421718 -32 56 C-31.221406 54.964883 -30.442813 53.929766 -29.640625 52.863281 C-24.667977 46.220366 -20.670395 39.766298 -17.367188 32.105469 C-14.635621 25.90091 -11.190777 20.057739 -7.8125 14.1875 C-6.63308 12.113347 -5.504565 10.009131 -4.4375 7.875 C-3.077114 5.154227 -1.652505 2.553872 0 0 Z " transform="translate(529,25)"/>
    <path d="M0 0 C0.495 0.165 0.495 0.165 3 1 C3.407589 6.706243 2.819721 9.806275 0.074219 14.757812 C-1.608974 18.271096 -2.343435 21.948539 -3.21875 25.730469 C-4.040551 29.169706 -5.003733 32.54491 -6 35.9375 C-13.603076 62.404267 -16.935177 89.074843 -17.658936 116.533691 C-17.690276 117.674995 -17.721616 118.816299 -17.753906 119.992188 C-17.76587 120.499353 -17.76587 120.499353 -17.826416 123.065918 C-18 126 -18 126 -18.593994 128.824463 C-19.131017 133.024734 -18.48053 136.67192 -17.742188 140.816406 C-17.599207 141.661034 -17.456227 142.505662 -17.308914 143.375885 C-16.842454 146.106895 -16.360206 148.834762 -15.875 151.5625 C-15.711501 152.494381 -15.548001 153.426263 -15.379547 154.386383 C-4.692017 215.220922 19.392424 272.162278 59 320 C59.787617 320.973242 60.575234 321.946484 61.386719 322.949219 C67.856181 330.811628 74.885458 338.098768 82.0625 345.3125 C82.972095 346.231279 83.881689 347.150059 84.818848 348.09668 C90.904883 354.155364 97.254495 359.689056 104 365 C104.365812 365.29016 104.365812 365.29016 106.217041 366.758545 C113.375035 372.39298 120.63098 377.908743 128.1875 383 C128.777246 383.398159 129.366992 383.796318 129.974609 384.206543 C133.697478 386.655645 137.500878 388.828483 141.441406 390.910156 C153.948477 397.626036 161.215027 403.582952 167.935547 416.111328 C170.39718 420.479034 173.729066 424.225342 177 428 C177.353203 428.407988 177.353203 428.407988 179.140625 430.472656 C181.390797 433.017869 183.682855 435.515678 186 438 C186.747656 438.813398 187.495313 439.626797 188.265625 440.464844 C197.718749 450.371842 209.003392 458.059833 220.696289 465.095947 C224.893657 467.680972 224.893657 467.680972 226 471 C219.371917 474.652978 212.841718 477.576558 205.625 479.8125 C204.959844 480.018992 204.294688 480.225483 203.609375 480.438232 C196.952651 482.427397 190.519076 483.182266 183.625 483.5625 C182.888945 483.605684 182.152891 483.648867 181.394531 483.693359 C179.596519 483.798438 177.79828 483.899621 176 484 C166.726671 517.583759 164.823274 549.82566 169.641113 584.384277 C169.966032 586.752424 170.248518 589.121317 170.519531 591.496094 C171.086707 595.632325 172.409076 599.177821 174 603 C174.362227 603.942305 174.724453 604.884609 175.097656 605.855469 C181.212106 621.367691 190.847084 633.173876 206.328125 640.03125 C216.004658 643.491732 227.352588 643.652126 236.71875 639.28125 C239.932301 637.476379 242.990406 635.504988 245.992188 633.367188 C250.937143 630 250.937143 630 253 630 C256.682932 659.049315 260.227905 688.109859 263.551544 717.202454 C264.685703 727.129704 265.828492 737.055964 266.970095 746.982361 C267.391774 750.649434 267.813193 754.316538 268.234604 757.983643 C272.051971 791.190291 275.9115 824.392063 279.768506 857.594126 C280.160195 860.966016 280.551821 864.337914 280.943449 867.709811 C286.058701 911.751322 291.184059 955.791632 296.343019 999.828048 C296.547547 1001.574339 296.751913 1003.320649 296.956107 1005.066979 C297.434132 1009.152416 297.91523 1013.237432 298.40416 1017.321579 C299.320183 1024.999229 300.178873 1032.676739 300.935547 1040.371826 C302.418348 1055.162576 303.992809 1068.747786 310.75 1082.1875 C311.41617 1083.609447 312.07653 1085.034128 312.731689 1086.461182 C313.75729 1088.693365 314.785887 1090.923427 315.832474 1093.145859 C319.581073 1101.116981 322.878367 1109.261232 326.173492 1117.427795 C327.844672 1121.564025 329.535207 1125.6923 331.226562 1129.820312 C331.550565 1130.611505 331.874568 1131.402697 332.208389 1132.217865 C338.168264 1146.747232 344.382818 1161.167745 350.792969 1175.503906 C360.882415 1198.081191 369.677137 1220.230927 375.75 1244.28125 C375.992344 1245.240957 376.234688 1246.200664 376.484375 1247.189453 C377.033621 1250.183258 377.089789 1252.962895 377 1256 C374.625 1255.75 374.625 1255.75 372 1255 C370.9375 1253.1875 370.9375 1253.1875 370 1251 C368.691125 1249.642649 367.351471 1248.314945 366 1247 C364.737213 1245.636734 363.488127 1244.260701 362.25 1242.875 C361.636406 1242.191797 361.022812 1241.508594 360.390625 1240.804688 C359 1239 359 1239 359 1237 C358.34 1237 357.68 1237 357 1237 C356.061633 1235.679335 355.137331 1234.347101 354.273438 1232.976562 C352.737998 1230.593335 351.087902 1228.304991 349.4375 1226 C347.536244 1223.306889 345.929433 1220.852986 344.5 1217.875 C342.703696 1214.432085 340.369391 1211.946343 337.773438 1209.082031 C335.109637 1205.954706 333.063168 1202.539887 331 1199 C330.544961 1198.24332 330.089922 1197.486641 329.621094 1196.707031 C328.409437 1194.683711 327.211062 1192.652425 326.019531 1190.617188 C322.544224 1184.707825 319.063108 1178.924722 314.9375 1173.4375 C311.101749 1168.312998 307.983476 1162.937088 304.878906 1157.355469 C303.248866 1154.44444 301.557481 1151.592846 299.8125 1148.75 C297.463975 1144.865174 295.404717 1140.901922 293.40625 1136.828125 C289.431694 1128.834851 285.339334 1120.905913 280.4375 1113.4375 C277.163818 1108.419824 274.519634 1103.208697 271.894531 1097.828125 C269.448755 1092.834393 266.817507 1087.939567 264.195801 1083.036621 C259.724133 1074.656025 255.634189 1066.140457 251.6875 1057.5 C251.204021 1056.442083 250.720542 1055.384165 250.222412 1054.294189 C239.773628 1031.377929 239.773628 1031.377929 236.9375 1023.25 C235.211343 1018.316008 232.976794 1013.748958 230.5625 1009.117188 C226.602467 1001.216921 223.372048 993.025181 220.125 984.8125 C216.915505 976.7342 213.637855 968.704421 210.167969 960.734375 C209.171822 958.402258 208.246939 956.068033 207.375 953.6875 C205.417093 948.436751 203.360459 943.231152 200.4375 938.4375 C198.887314 935.808924 197.913394 933.120924 196.890625 930.253906 C195.530493 926.811818 193.806212 923.57061 192.085938 920.296875 C189.932793 915.742742 189.141504 911.021275 190 906 C192.089844 903.121094 192.089844 903.121094 194.9375 900.4375 C205.824627 889.476371 211.56414 876.635319 216 862 C216.255234 861.182734 216.510469 860.365469 216.773438 859.523438 C218.510165 853.004418 221.037833 840.075667 218 834 C217.261367 834.845625 216.522734 835.69125 215.761719 836.5625 C199.992194 854.328134 180.995692 865.453523 157 867 C153.59469 867.044357 150.212975 866.926925 146.8125 866.75 C145.898313 866.703352 144.984126 866.656704 144.042236 866.608643 C136.139992 866.134023 128.701428 864.87153 121 863 C119.601817 862.683768 118.20337 862.368703 116.804688 862.054688 C109.797457 860.44041 103.193315 858.791825 97 855 C96.67 854.34 96.34 853.68 96 853 C98.201971 849.697044 98.580968 849.539852 102.183594 848.570312 C103.023499 848.335059 103.863403 848.099805 104.72876 847.857422 C105.622644 847.615723 106.516528 847.374023 107.4375 847.125 C114.968101 844.975495 122.030849 842.624857 129 839 C129.872695 838.57332 130.745391 838.146641 131.644531 837.707031 C156.353393 825.087484 174.840872 802.932454 183.46875 776.664062 C186.836286 765.872205 189.37277 755.369475 189 744 C188.79375 744.411211 188.79375 744.411211 187.75 746.492188 C183.850958 754.029174 179.67783 760.629752 174 767 C173.661621 767.38543 173.661621 767.38543 171.949219 769.335938 C153.638984 788.951655 127.364496 792.288843 102 794 C100.781836 794.086367 99.563672 794.172734 98.308594 794.261719 C91.626642 794.514361 84.716762 793.743246 79 790 C78.199219 787.355469 78.199219 787.355469 78 785 C78.883008 784.321953 79.766016 783.643906 80.675781 782.945312 C91.266929 774.756189 101.486671 766.411841 110 756 C110.611016 755.276836 111.222031 754.553672 111.851562 753.808594 C120.466299 743.39197 127.847223 732.03043 134 720 C133.67 719.67 133.34 719.34 133 719 C132.440547 719.4125 131.881094 719.825 131.304688 720.25 C116.361349 731.013048 99.672175 740.230771 81 742 C80.526914 742.047051 80.526914 742.047051 78.132812 742.285156 C69.818601 742.681555 61.960746 741.284578 53.8125 739.75 C52.719939 739.545603 51.627378 739.341206 50.501709 739.130615 C43.369752 737.704655 36.774809 735.616812 30 733 C28.524383 732.484406 27.046655 731.974796 25.566406 731.472656 C24.23168 731.002863 22.897042 730.532817 21.5625 730.0625 C20.88252 729.83627 20.202539 729.610039 19.501953 729.376953 C15.018937 727.768677 12.513053 726.068446 10 722 C10 719.375 10 719.375 11 717 C13.854992 714.488297 16.600489 713.270415 20.191406 712.089844 C20.700465 711.917391 20.700465 711.917391 23.276611 711.044678 C24.360955 710.679309 25.445298 710.31394 26.5625 709.9375 C49.555153 701.918042 75.944572 688.926302 91 669 C90.414766 669.242344 89.829531 669.484687 89.226562 669.734375 C76.382542 674.748557 62.781044 677.594675 49 678 C47.991953 678.039961 46.983906 678.079922 45.945312 678.121094 C17.651831 678.720831 -8.808442 669.056578 -31.730469 652.613281 C-33.447389 651.39282 -35.213692 650.241443 -37 649.125 C-44.542096 643.782682 -54.82939 636.100248 -57.648438 626.878906 C-57.9375 624.9375 -57.9375 624.9375 -58 622 C-52.698924 619.924136 -48.170931 618.735203 -42.464844 619.394531 C-11.504346 622.461081 21.867293 619.249298 51 608 C50.267007 607.960361 49.534014 607.920723 48.778809 607.879883 C32.604822 606.966611 16.816595 605.58569 1 602 C0.257822 601.836934 -0.484355 601.673867 -1.249023 601.505859 C-21.598504 596.864588 -40.737746 585.325751 -56.5625 571.996094 C-59 570 -59 570 -62.3125 567.875 C-65.298584 565.791685 -67.329337 563.498975 -69.605469 560.683594 C-70.987572 559.015004 -72.460866 557.523185 -74 556 C-76.376804 553.371612 -78.681528 550.679846 -81 548 C-81.233562 547.731553 -81.233562 547.731553 -82.415527 546.373047 C-83.98865 544.564031 -85.557179 542.751112 -87.125 540.9375 C-87.627654 540.360242 -88.130308 539.782983 -88.648193 539.188232 C-97.839964 528.51816 -97.839964 528.51816 -99.75 522.625 C-101 519 -101 519 -102 518 C-102.203125 516.003906 -102.203125 516.003906 -102.25 513.5625 C-102.275781 512.759414 -102.301563 511.956328 -102.328125 511.128906 C-102.219844 510.426367 -102.111563 509.723828 -102 509 C-98.581138 506.720758 -96.998121 506.840146 -93.027344 507.464844 C-89.87521 508.29691 -87.647286 510.116354 -85 512 C-77.869313 516.218001 -71.670902 518.477282 -63.460938 519.441406 C-59.417523 520.094011 -55.687938 521.199808 -51.8125 522.5 C-51.164343 522.714065 -50.516187 522.92813 -49.848389 523.148682 C-47.009515 524.130596 -45.151313 524.848687 -43 527 C-40.681521 527.716621 -38.346803 528.38242 -36 529 C-35.01 529.33 -34.02 529.66 -33 530 C-31.306265 530.032258 -29.611349 530.016113 -27.917969 529.96875 C-22.551267 529.91949 -17.585658 530.595271 -12.3125 531.5 C-2.521032 533.015761 7.117092 533.282482 17 533.25 C17.350882 533.249476 17.350882 533.249476 19.126556 533.246826 C25.526239 533.226575 31.696576 533.193251 38 532 C37.643413 531.92745 37.643413 531.92745 35.838867 531.560303 C14.277704 527.118288 -5.638582 521.593983 -25 511 C-25.647915 510.64728 -26.29583 510.294561 -26.963379 509.931152 C-32.964047 506.641908 -38.681714 503.337727 -44 499 C-46.093175 497.525933 -48.198056 496.068393 -50.3125 494.625 C-51.468049 493.827694 -52.622999 493.029518 -53.777344 492.230469 C-55.643008 490.939203 -57.509656 489.64935 -59.378906 488.363281 C-63.674313 485.295133 -67.036931 481.911491 -70.421875 477.863281 C-72 476 -72 476 -74.4375 473.625 C-85 462.804878 -85 462.804878 -85 459 C-85.556875 458.79375 -86.11375 458.5875 -86.6875 458.375 C-96.192394 452.723442 -102.256045 438.534193 -107 429 C-107.555586 427.90043 -108.111172 426.800859 -108.683594 425.667969 C-113.407398 416.294005 -117.843435 407.417469 -120.386719 397.1875 C-121 395 -121 395 -122 394 C-122.326619 391.479096 -122.612166 388.965093 -122.875 386.4375 C-123.84455 377.696248 -123.84455 377.696248 -125.625 373.875 C-128.116626 368.340837 -127.22473 361.926221 -127 356 C-124.125 355.828125 -124.125 355.828125 -121 356 C-119 358.75 -119 358.75 -117 362 C-116.0925 362.5775 -115.185 363.155 -114.25 363.75 C-111.089731 365.937878 -109.441972 367.800437 -107.125 370.8125 C-104.039784 374.818589 -100.867338 378.073115 -96.988281 381.296875 C-94.931126 383.058997 -93.069499 384.92784 -91.1875 386.875 C-86.448819 391.659333 -81.281001 395.83456 -76 400 C-75.304551 400.550591 -74.609102 401.101182 -73.892578 401.668457 C-71.557602 403.513568 -69.217337 405.351744 -66.875 407.1875 C-66.135239 407.769673 -65.395479 408.351846 -64.633301 408.95166 C-57.942632 414.162761 -51.086746 419.055933 -43.5625 423 C-40.073857 424.834404 -36.703241 426.79108 -33.347656 428.855469 C-28.020429 432.065167 -22.535146 434.744545 -16.875 437.3125 C-15.83658 437.783975 -14.798159 438.255449 -13.728271 438.741211 C31.53341 459 31.53341 459 47 459 C46.473821 458.759912 45.947642 458.519824 45.405518 458.272461 C14.965927 444.296742 -14.412136 427.123952 -38 403 C-38.763125 402.236875 -39.52625 401.47375 -40.3125 400.6875 C-41.199375 399.800625 -42.08625 398.91375 -43 398 C-43.316465 397.689336 -43.316465 397.689336 -44.917969 396.117188 C-48.857737 392.229161 -52.521051 388.30291 -56 384 C-56.212051 383.763457 -56.212051 383.763457 -57.285156 382.566406 C-61.296749 378.085491 -64.738224 373.234922 -68.186279 368.317383 C-70.652456 364.818906 -73.213627 361.504528 -76 358.25 C-84.103293 348.256486 -89.946011 336.416917 -93.917969 324.234375 C-95.288518 320.13757 -97.007945 316.237491 -98.789062 312.304688 C-102.139646 303.160836 -103.68497 293.596359 -105.125 284 C-105.459414 281.812267 -105.795289 279.624756 -106.132812 277.4375 C-106.27606 276.487461 -106.419307 275.537422 -106.566895 274.558594 C-107 272 -107 272 -107.534424 269.940918 C-108.055355 267.769234 -108.210191 265.738102 -108.316406 263.507812 C-108.358462 262.64543 -108.400518 261.783047 -108.443848 260.894531 C-108.483003 259.980586 -108.522158 259.066641 -108.5625 258.125 C-108.604233 257.177539 -108.645967 256.230078 -108.688965 255.253906 C-109.149577 244.199226 -109.061135 233.238336 -108.5625 222.1875 C-108.523345 221.315449 -108.484189 220.443398 -108.443848 219.544922 C-107.640954 203.388612 -107.640954 203.388612 -104 198 C-103.288569 196.015482 -102.610087 194.017979 -102 192 C-98.511512 193.744244 -97.777284 197.864635 -96.316406 201.335938 C-95 204 -95 204 -93.52832 205.356445 C-91.592785 207.437919 -91.061427 209.247475 -90.230469 211.960938 C-89.90635 212.97551 -89.582231 213.990083 -89.248291 215.0354 C-88.89823 216.137468 -88.548169 217.239536 -88.1875 218.375 C-79.781947 243.684244 -67.489876 268.963177 -51 290 C-50.542866 290.585718 -50.085732 291.171436 -49.614746 291.774902 C-35.244265 310.09715 -19.629572 326.013221 -1 340 C-4.232813 335.575484 -7.579273 331.303662 -11.125 327.125 C-33.912941 299.366535 -50.577717 265.392556 -60.25 230.9375 C-60.484368 230.112419 -60.718735 229.287339 -60.960205 228.437256 C-65.082654 213.079026 -66.517627 198.043698 -66.375 182.1875 C-66.373172 181.740588 -66.373172 181.740588 -66.363922 179.478943 C-66.300746 166.157234 -65.746285 152.90414 -64.6875 139.625 C-64.628828 138.864081 -64.570155 138.103161 -64.509705 137.319183 C-63.863855 129.197831 -62.87664 121.383078 -60.682373 113.504395 C-60.025815 111.094744 -59.545874 108.710431 -59.125 106.25 C-57.409546 97.309284 -54.429634 88.415572 -51 80 C-50.529992 78.608054 -50.071429 77.212186 -49.625 75.8125 C-47.085684 68.194551 -44.466808 61.398977 -39.832031 54.804688 C-37.362624 51.02423 -35.22776 47.085377 -33.0625 43.125 C-26.260098 30.755386 -19.530799 18.581059 -8 10 C-7.34 10 -6.68 10 -6 10 C-5.9175 9.4225 -5.835 8.845 -5.75 8.25 C-4.792486 5.377458 -3.185716 4.049109 -1 2 C-0.67 1.34 -0.34 0.68 0 0 Z " transform="translate(143,87)"/>
    <path d="M0 0 C0.66 0 1.32 0 2 0 C18.500527 39.706482 18.500527 39.706482 25.3125 56.375 C25.737004 57.409875 26.161509 58.444751 26.598877 59.510986 C28.888025 65.129467 31.038664 70.774051 33.039551 76.501953 C34.055188 79.143539 35.259609 81.613997 36.5625 84.125 C38.131442 87.153533 39.428843 90.05513 40.4375 93.3125 C41.557645 96.928137 43.006574 100.24913 44.636719 103.664062 C49.27699 113.619872 53.281872 123.833549 57.363281 134.027832 C58.02068 135.668356 58.678231 137.308818 59.335938 138.949219 C59.654719 139.745316 59.9735 140.541412 60.301941 141.361633 C62.055564 145.721361 63.870493 150.041477 65.789062 154.332031 C66.17272 155.210447 66.556377 156.088862 66.95166 156.993896 C67.61063 158.49062 68.292151 159.977818 69.005371 161.449463 C72.039597 168.467709 70.814689 175.591208 70 183 C69.854072 184.421849 69.708404 185.843724 69.562988 187.265625 C69.182062 190.888068 68.762845 194.504824 68.325439 198.12085 C68.057404 200.354979 67.80306 202.590435 67.548828 204.826172 C67.378428 206.255307 67.207235 207.684348 67.035156 209.113281 C66.884417 210.389856 66.733677 211.666431 66.578369 212.981689 C66 216 66 216 64 218 C62.060547 218.777832 62.060547 218.777832 59.71875 219.507812 C58.876992 219.77207 58.035234 220.036328 57.167969 220.308594 C56.287539 220.578008 55.407109 220.847422 54.5 221.125 C53.61957 221.402148 52.739141 221.679297 51.832031 221.964844 C45.285445 224 45.285445 224 43 224 C37.655072 199.915349 32.460506 175.800573 27.560455 151.621124 C27.062292 149.167709 26.560813 146.714965 26.056 144.262909 C25.346639 140.81127 24.650057 137.357295 23.957031 133.902344 C23.742976 132.870973 23.528922 131.839602 23.30838 130.776978 C23.120006 129.823112 22.931631 128.869246 22.737549 127.886475 C22.570076 127.059254 22.402604 126.232033 22.230057 125.379745 C21.97245 122.715014 22.356379 120.586517 23 118 C22.34 118 21.68 118 21 118 C20.832064 117.186803 20.664129 116.373606 20.491104 115.535767 C18.526192 106.024946 16.555467 96.515338 14.582287 87.006229 C14.065078 84.512431 13.548594 82.018484 13.032257 79.524506 C6.292421 46.984216 6.292421 46.984216 2.929688 32.488281 C2.709797 31.537467 2.489906 30.586652 2.263351 29.607025 C1.286613 25.402648 0.290144 21.204284 -0.736084 17.011719 C-1.075627 15.576886 -1.41492 14.141995 -1.753906 12.707031 C-2.045959 11.515696 -2.338013 10.32436 -2.638916 9.096924 C-3.037232 5.680669 -2.599202 4.005651 -1 1 C-0.67 0.67 -0.34 0.34 0 0 Z " transform="translate(406,170)"/>
    <path d="M0 0 C5.40649 4.46317 10.23167 9.241281 15 14.375 C15.672891 15.091719 16.345781 15.808438 17.039062 16.546875 C20.875627 20.650073 24.610499 24.825747 28.293945 29.066406 C31.077341 32.221028 33.98105 35.259671 36.875 38.3125 C41.82733 43.568369 46.477028 48.935594 50.984375 54.578125 C53.519551 57.624267 56.278623 60.364356 59.117188 63.125 C61.53205 65.529842 63.732037 68.08519 65.953125 70.667969 C68.581667 73.662701 71.289283 76.579741 74 79.5 C77.786535 83.582802 81.517678 87.697706 85.160156 91.910156 C87.566705 94.64371 90.033218 97.320964 92.5 100 C97.681636 105.634443 102.746677 111.349783 107.707031 117.179688 C112.677456 123.014887 117.675976 128.804027 122.875 134.4375 C123.319727 134.921543 123.319727 134.921543 125.570312 137.371094 C127.054668 138.977157 128.547448 140.575549 130.054688 142.160156 C134.001092 146.443006 134.001092 146.443006 133.996094 148.992188 C132.490057 152.027884 130.334605 152.674098 127.3125 154.125 C122.111334 156.788593 117.315151 159.663448 112.5625 163.0625 C111.99636 163.461626 111.43022 163.860752 110.846924 164.271973 C107.885268 166.419949 105.302963 168.656966 102.777344 171.308594 C100 174 100 174 97 174 C96.440547 172.906875 95.881094 171.81375 95.304688 170.6875 C88.899771 158.287941 81.969474 146.246623 74.888184 134.223633 C71.598357 128.607021 68.366297 122.957204 65.125 117.3125 C60.771227 109.741993 56.362108 102.230569 51.734375 94.824219 C49.512832 91.206706 47.421539 87.521232 45.330078 83.827393 C42.301842 78.494349 39.188631 73.213648 36.0625 67.9375 C0 7.032778 0 7.032778 0 0 Z " transform="translate(300,252)"/>
    <path d="M0 0 C6.656804 1.987733 12.656046 4.679791 18.8125 7.875 C27.619737 12.367057 36.520124 16.618085 45.5 20.75 C53.469296 24.421184 61.402864 28.115906 69.216553 32.109131 C72.922733 33.97924 76.670382 35.757753 80.420883 37.536911 C94.523401 44.228446 108.487258 51.185358 122.4375 58.1875 C124.741441 59.341988 127.045477 60.496285 129.349609 61.650391 C134.900832 64.431418 140.450899 67.214741 146 70 C146 73 146 73 144.75 74.578125 C144.1725 75.129844 143.595 75.681562 143 76.25 C142.680313 76.557441 142.680313 76.557441 141.0625 78.113281 C139.075126 79.931277 137.048566 81.689017 135 83.4375 C130.912361 86.964864 127.46169 90.868566 124 95 C122.855257 96.33427 121.709492 97.667663 120.5625 99 C119.716875 99.99 118.87125 100.98 118 102 C114.6618 101.390351 112.697484 100.239056 110.0625 98.125 C109.277461 97.495937 108.492422 96.866875 107.683594 96.21875 C104.07791 93.237631 100.501721 90.223054 96.939697 87.189941 C93.491077 84.253433 90.014052 81.358369 86.5 78.5 C80.260237 73.41879 74.128793 68.213927 68 63 C67.261367 62.376094 66.522734 61.752187 65.761719 61.109375 C63.443141 59.143301 61.178849 57.184618 59.0625 55 C56.518467 52.533059 53.726596 50.534262 50.875 48.4375 C48.724863 46.789062 46.914591 44.914591 45 43 C43.884802 42.153594 42.758077 41.322317 41.625 40.5 C35.757849 36.178555 30.330473 31.333069 24.821289 26.571289 C21.953935 24.097524 19.073394 21.639592 16.1875 19.1875 C15.653909 18.730608 15.120317 18.273716 14.570557 17.802979 C11.402677 15.110601 8.139036 12.653913 4.75 10.25 C1.834768 8.04892 0.485259 6.72153 -0.0625 3.0625 C-0.041875 2.051875 -0.02125 1.04125 0 0 Z " transform="translate(236,369)"/>
    <path d="M0 0 C0.833664 16.117506 -4.787672 32.696674 -13.996094 45.851562 C-15.328364 48.702725 -14.825852 49.990969 -14 53 C-12.811035 55.354736 -12.811035 55.354736 -11.289062 57.832031 C-10.712932 58.779814 -10.136802 59.727598 -9.543213 60.704102 C-8.910203 61.729873 -8.277192 62.755645 -7.625 63.8125 C-6.615751 65.469783 -5.606544 67.127092 -4.598831 68.785309 C-3.880653 69.966781 -3.161628 71.147738 -2.441818 72.328217 C2.492814 80.428812 7.30331 88.603514 12.130798 96.768219 C13.282837 98.715851 14.43627 100.662652 15.589844 102.609375 C16.619341 104.349761 17.647907 106.090756 18.661766 107.840299 C19.692145 109.50317 20.806396 111.114271 21.953285 112.699031 C27.834601 121.212133 29.138625 127.831924 28.924072 138.273682 C28.923451 139.756777 28.926358 141.239878 28.93248 142.722961 C28.938985 146.708646 28.896428 150.692399 28.844083 154.677688 C28.797428 158.862389 28.796005 163.04712 28.789291 167.23204 C28.771889 174.246747 28.725681 181.260747 28.658447 188.275146 C28.563656 198.167963 28.520442 208.060512 28.487815 217.953703 C28.441365 231.208781 28.380781 244.464144 28.259455 257.718765 C28.246945 259.150646 28.236047 260.582542 28.226871 262.014448 C28.213926 263.967641 28.194183 265.920785 28.174088 267.873917 C28.164619 268.966871 28.15515 270.059825 28.145394 271.185899 C28 274 28 274 27.42662 276.19538 C27 278 27 278 28 281 C28.092104 282.912062 28.123744 284.82724 28.123048 286.741519 C28.125039 287.94578 28.12703 289.150041 28.129081 290.390795 C28.126228 291.733975 28.123282 293.077155 28.120255 294.420334 C28.12069 295.841855 28.121565 297.263375 28.122844 298.684895 C28.125086 302.600269 28.121071 306.515615 28.116066 310.430985 C28.111758 314.649786 28.113208 318.868585 28.113968 323.087387 C28.114493 330.399791 28.111348 337.712186 28.10573 345.024588 C28.097612 355.597167 28.095 366.169742 28.093742 376.742324 C28.091552 393.894544 28.084893 411.046758 28.075439 428.198975 C28.066264 444.863362 28.059184 461.527749 28.054932 478.192139 C28.054669 479.218877 28.054406 480.245615 28.054136 481.303467 C28.05283 486.454175 28.051567 491.604884 28.050324 496.755593 C28.039952 539.503732 28.022335 582.251866 28 625 C26.68 625.66 25.36 626.32 24 627 C21.065544 623.540668 19.473863 619.702647 17.8125 615.535156 C17.513382 614.797677 17.214264 614.060197 16.906082 613.300369 C15.931018 610.89026 14.965145 608.476597 14 606.0625 C13.327867 604.392681 12.655584 602.722922 11.983154 601.053223 C6.117244 586.447214 0.446552 571.767846 -5 557 C-5.327311 556.21479 -5.654622 555.429579 -5.991852 554.620575 C-8.860489 547.437346 -9.75863 540.903581 -10.125 533.210938 C-10.197097 531.984087 -10.269194 530.757237 -10.343475 529.49321 C-10.497012 526.843002 -10.644556 524.193293 -10.781677 521.542267 C-11.002346 517.28159 -11.247883 513.022547 -11.496582 508.763428 C-11.842894 502.796701 -12.179797 496.829523 -12.508789 490.861816 C-13.259425 477.259785 -14.055714 463.660575 -14.875 450.0625 C-14.95328 448.753175 -15.031561 447.44385 -15.112213 446.094849 C-16.676354 420.137608 -18.763829 394.229349 -20.981934 368.320557 C-23.148681 342.978045 -23.148681 342.978045 -23.738281 332.523438 C-23.760968 332.142907 -23.760968 332.142907 -23.875778 330.217194 C-24.123371 325.246742 -24.123371 325.246742 -23 323 C-23.66 323 -24.32 323 -25 323 C-25.043053 322.562016 -25.043053 322.562016 -25.260925 320.345551 C-29.754134 274.731912 -34.537059 229.157817 -39.862503 183.633247 C-40.246215 180.344934 -40.626874 177.05628 -41.006714 173.767517 C-51.810508 80.386145 -51.810508 80.386145 -76 55 C-76.466318 54.495654 -76.932637 53.991309 -77.413086 53.47168 C-83.994312 46.383886 -90.38175 40.591242 -98.832031 35.78125 C-101 34 -101 34 -101.324219 31.28125 C-101.217227 30.528437 -101.110234 29.775625 -101 29 C-90.241726 23.583766 -80.425721 20.860889 -68.51709 19.327148 C-46.165507 16.422093 -24.976855 9.912696 -4.314941 0.915771 C-2 0 -2 0 0 0 Z " transform="translate(490,605)"/>
  </g>
  <g fill="currentColor">
    <path d="M0 0 C1.65 0 3.3 0 5 0 C7.59735 5.042944 9.92934 10.114631 12.093262 15.356934 C18.613346 31.105803 26.458153 44.914646 36.812012 58.441895 C38.319972 60.419659 39.782335 62.429735 41.25 64.4375 C44.287778 68.476164 47.64655 72.223299 51 76 C56 81.657895 56 81.657895 56 86 C53.940681 90.305848 51.434071 92.543934 47.625 95.375 C36.976511 103.352639 31.797006 115.268694 29 128 C28.44661 131.887576 28.137671 135.77061 27.875 139.6875 C27.801523 140.648496 27.728047 141.609492 27.652344 142.599609 C27.499411 144.642734 27.356046 146.686591 27.220703 148.730957 C27.07463 150.894583 26.912103 153.057167 26.732422 155.218262 C25.604854 170.032798 25.756708 184.90138 25.75 199.75 C25.749264 200.496059 25.748527 201.242118 25.747768 202.010784 C25.725439 229.851614 26.698912 257.530124 28.797546 285.299133 C28.990406 287.872006 29.174835 290.44532 29.355957 293.019043 C30.523003 309.479626 32.22633 325.833957 34.4375 342.1875 C34.534965 342.92291 34.63243 343.65832 34.732849 344.416016 C36.553825 357.987707 38.87437 371.709434 44.75 384.1875 C45.093616 384.935237 45.437231 385.682974 45.79126 386.453369 C51.089159 397.726033 57.785716 407.629337 66 417 C66.432158 417.493872 66.864316 417.987744 67.30957 418.496582 C85.087145 438.690215 104.793813 450.688857 130.25 459 C130.645843 459.130563 130.645843 459.130563 132.649048 459.79129 C153.783067 466.749566 175.192326 471.646646 197 476 C197 476.66 197 477.32 197 478 C175.180674 486.670854 153.158838 494.56123 130.578125 501.015625 C129.67772 501.274052 128.777315 501.532479 127.849625 501.798737 C123.421655 503.067173 118.990018 504.318115 114.548584 505.538574 C84.329067 513.993783 61.401848 529.991441 45.398438 557.378906 C41.0142 565.202561 37.374771 573.097645 34.601562 581.628906 C34.306322 582.527111 34.011081 583.425316 33.706894 584.350739 C30.242624 595.078908 27.395922 605.966983 24.5625 616.875 C23.999002 619.0235 23.43495 621.171855 22.870361 623.320068 C21.237059 629.544165 19.616792 635.771597 18 642 C17.543306 643.757002 17.0866 645.514 16.629883 647.270996 C14.403325 655.843096 12.191146 664.418772 10 673 C9.34 673 8.68 673 8 673 C6.879657 661.826445 6.836376 650.710352 6.832031 639.492188 C6.828808 637.516042 6.825444 635.539896 6.821945 633.563751 C6.815989 629.437026 6.814102 625.310323 6.814697 621.183594 C6.814799 615.949579 6.801161 610.715701 6.783925 605.481718 C6.772692 601.402816 6.770782 597.323946 6.771307 593.245029 C6.770143 591.318132 6.765815 589.391233 6.757975 587.464352 C6.61414 548.459971 14.00108 509.05748 42 480 C43.666667 478.333333 45.333333 476.666667 47 475 C49.033264 472.694337 51.024702 470.355424 53 468 C52.200781 467.405742 51.401562 466.811484 50.578125 466.199219 C29.956997 450.704104 8.471892 430.141945 0 405 C-0.372595 401.533739 -0.372595 401.533739 -0.369143 397.81363 C-0.372605 397.121762 -0.376067 396.429894 -0.379633 395.71706 C-0.387555 393.405436 -0.374131 391.094443 -0.360764 388.782852 C-0.362072 387.106265 -0.3647 385.429679 -0.368531 383.753096 C-0.375236 379.151195 -0.363243 374.549504 -0.348197 369.94763 C-0.335241 364.983153 -0.339626 360.018688 -0.341904 355.054199 C-0.343477 346.454618 -0.334065 337.855105 -0.31719 329.255541 C-0.292808 316.822028 -0.284996 304.388547 -0.281226 291.955013 C-0.27466 271.782408 -0.254696 251.60984 -0.226318 231.437256 C-0.198781 211.841555 -0.177546 192.245863 -0.164795 172.650146 C-0.164007 171.442252 -0.163219 170.234358 -0.162407 168.989861 C-0.158491 162.930207 -0.1547 156.870552 -0.150971 150.810898 C-0.119871 100.540573 -0.067032 50.270289 0 0 Z " transform="translate(530,24)"/>
    <path d="M0 0 C5.495571 2.747785 9.599526 5.79659 13 11 C13.157266 11.711562 13.314531 12.423125 13.476562 13.15625 C13.649297 13.764688 13.822031 14.373125 14 15 C14.99 15.33 15.98 15.66 17 16 C18.5 17.996094 18.5 17.996094 20 20.4375 C21.910038 23.536337 22.906625 24.93775 26 27 C26.661579 30.171902 27.129797 33.282462 27.464844 36.501953 C27.765625 38.496094 27.765625 38.496094 29 42 C32.496094 43.789062 32.496094 43.789062 36 45 C37.681911 47.725856 38.747167 50.331799 39.875 53.3125 C41 55 41 55 43.625 55.75 C44.40875 55.8325 45.1925 55.915 46 56 C46.025781 56.675469 46.051563 57.350937 46.078125 58.046875 C46.549637 65.46247 46.549637 65.46247 48.9375 68.3125 C49.618125 68.869375 50.29875 69.42625 51 70 C51.693139 71.655832 52.364744 73.32111 53 75 C53.33 75.165 53.33 75.165 55 76 C55.894542 79.077223 56.539337 82.181292 57.21875 85.3125 C57.347656 85.755938 57.347656 85.755938 58 88 C58.33 88.165 58.33 88.165 60 89 C60 89.99 60 90.98 60 92 C57.538184 91.028345 55.093694 90.041729 52.675781 88.964844 C43.734625 85.078027 36.570667 83.993507 27.226562 87.113281 C25.081301 87.967622 23.045476 88.930562 21 90 C19.559438 86.488631 18.891871 83.569993 19 79.8125 C19.164419 72.299799 17.667006 65.153054 14.847656 58.210938 C13.780582 55.427693 12.926451 52.602731 12.0625 49.75 C10.709629 45.297449 9.32716 40.858761 7.875 36.4375 C7.563047 35.487461 7.251094 34.537422 6.929688 33.558594 C6 31 6 31 4.941406 28.941406 C3.897088 26.78777 3.485198 24.851005 3.0625 22.5 C2.328336 18.945716 1.439933 16.758185 -1 14 C-1.933858 11.198426 -2.163546 9.345522 -2.1875 6.4375 C-2.20168 5.652461 -2.215859 4.867422 -2.230469 4.058594 C-2 2 -2 2 0 0 Z M26.1875 62.1875 C25.465625 63.115625 24.74375 64.04375 24 65 C24.33 66.32 24.66 67.64 25 69 C26.815 68.835 26.815 68.835 36 68 C35.67 66.68 35.34 65.36 35 64 C34.34 64 33.68 64 33 64 C33 63.01 33 62.02 33 61 C29.707177 59.414567 29.160103 59.875476 26.1875 62.1875 Z M40 60 C39.67 60.66 39.34 61.32 39 62 C39.66 62 40.32 62 41 62 C40.67 61.34 40.34 60.68 40 60 Z M34 74 C34.33 74.99 34.66 75.98 35 77 C35.66 76.34 36.32 75.68 37 75 C36.01 74.67 35.02 74.34 34 74 Z " transform="translate(910,97)"/>
    <path d="M0 0 C1.32 0.33 2.64 0.66 4 1 C3.290062 8.065986 1.760541 14.847953 0.148438 21.757812 C-0.297569 23.69526 -0.743563 25.632711 -1.189117 27.570263 C-1.667105 29.646748 -2.146735 31.722848 -2.626648 33.798889 C-4.354498 41.279193 -6.06222 48.764097 -7.765625 56.25 C-7.85389 56.637883 -7.85389 56.637883 -8.300564 58.600803 C-12.122367 75.414418 -15.778668 92.261888 -19.375 109.125 C-19.524832 109.827292 -19.674664 110.529585 -19.829037 111.253159 C-21.710595 120.074413 -23.58451 128.897282 -25.455575 137.720768 C-27.339276 146.602587 -29.229111 155.4831 -31.118561 164.363697 C-35.418461 184.574506 -39.711322 204.786806 -44 225 C-47.330785 225.940092 -49.035664 225.937518 -52.328125 224.785156 C-53.127344 224.51123 -53.926563 224.237305 -54.75 223.955078 C-55.575 223.660527 -56.4 223.365977 -57.25 223.0625 C-57.670234 222.917158 -57.670234 222.917158 -59.796875 222.181641 C-61.868057 221.463788 -63.935333 220.736339 -66 220 C-67.369973 211.590698 -68.34665 203.169533 -69.125 194.6875 C-69.212495 193.788943 -69.29999 192.890386 -69.390137 191.9646 C-69.652257 188.977638 -69.834394 185.99388 -70 183 C-70.093135 181.709487 -70.18627 180.418975 -70.282227 179.089355 C-70.878218 167.659617 -68.080642 159.105532 -63.5 148.75 C-62.818585 147.148249 -62.139851 145.545354 -61.463623 143.941406 C-59.698204 139.775472 -57.896487 135.626378 -56.082947 131.481201 C-54.326952 127.457941 -52.596656 123.423668 -50.863281 119.390625 C-48.845704 114.703787 -46.823059 110.019275 -44.784424 105.341553 C-40.153305 94.714908 -35.65803 84.041515 -31.252197 73.31958 C-26.260722 61.173513 -21.139335 49.084175 -16 37 C-15.34 37 -14.68 37 -14 37 C-13.853047 36.28457 -13.706094 35.569141 -13.554688 34.832031 C-11.733888 26.743079 -9.042912 19.263728 -5 12 C-4.34 11.67 -3.68 11.34 -3 11 C-2.637294 9.005118 -2.308309 7.00401 -2 5 C-1.377744 3.316248 -0.724556 1.642328 0 0 Z " transform="translate(652,167)"/>
    <path d="M0 0 C0.835393 0.006123 1.670786 0.012246 2.531494 0.018555 C10.088646 0.208966 17.017951 1.334007 22.976562 6.289062 C24.969518 8.703436 25.32271 9.994269 25.6875 13.0625 C26.496481 18.026701 28.246573 21.904459 30.628906 26.308594 C31.75 28.4375 31.75 28.4375 32.75 31.4375 C33.41 31.7675 34.07 32.0975 34.75 32.4375 C35.175346 35.078189 35.500384 37.654552 35.75 40.3125 C36.483094 48.037141 36.483094 48.037141 38.75 51.4375 C40.148021 57.073823 39.897638 62.855997 39.875 68.625 C39.876934 69.123545 39.876934 69.123545 39.886719 71.646484 C39.88543 72.602324 39.884141 73.558164 39.882812 74.542969 C39.881685 75.41075 39.880557 76.27853 39.879395 77.172607 C39.75 79.4375 39.75 79.4375 38.75 82.4375 C39.08 83.035625 39.41 83.63375 39.75 84.25 C41.95505 89.073548 38.967811 95.808882 37.6875 100.8125 C37.50123 101.548555 37.314961 102.284609 37.123047 103.042969 C36.667525 104.841694 36.209065 106.639675 35.75 108.4375 C38.06 108.7675 40.37 109.0975 42.75 109.4375 C43.08 110.7575 43.41 112.0775 43.75 113.4375 C42.1 114.4275 40.45 115.4175 38.75 116.4375 C37.577371 115.318716 36.412049 114.192269 35.25 113.0625 C34.600312 112.436016 33.950625 111.809531 33.28125 111.164062 C31.75 109.4375 31.75 109.4375 31.75 107.4375 C30.76 107.1075 29.77 106.7775 28.75 106.4375 C29.41 104.4575 30.07 102.4775 30.75 100.4375 C30.09 100.4375 29.43 100.4375 28.75 100.4375 C28.585 101.0975 28.585 101.0975 27.75 104.4375 C24.071027 103.066763 20.652393 101.384643 17.181885 99.568604 C6.245424 93.886836 -3.242655 91.141672 -15.5896 90.814697 C-21.048368 90.639132 -21.048368 90.639132 -23.25 88.4375 C-22.920285 85.140352 -22.627316 83.814816 -20.25 81.4375 C-20.641875 80.798125 -21.03375 80.15875 -21.4375 79.5 C-22.644838 74.949263 -20.933535 71.698199 -19.25 67.4375 C-18.274952 64.512357 -18.064678 62.415433 -17.952881 59.358643 C-17.932898 58.841117 -17.932898 58.841117 -17.831772 56.222122 C-17.793186 55.103392 -17.754599 53.984662 -17.714844 52.832031 C-17.671867 51.678859 -17.628889 50.525687 -17.58461 49.33757 C-17.494361 46.893986 -17.406238 44.450323 -17.320068 42.006592 C-17.188637 38.282208 -17.050971 34.558098 -16.912109 30.833984 C-16.825153 28.458347 -16.738553 26.082696 -16.652344 23.707031 C-16.611733 22.598422 -16.571123 21.489814 -16.529282 20.34761 C-16.331655 14.706572 -16.206099 9.081972 -16.25 3.4375 C-10.674599 0.627438 -6.211225 -0.077197 0 0 Z M3.75 8.4375 C4.08 8.9325 4.08 8.9325 5.75 11.4375 C5.75 10.4475 5.75 9.4575 5.75 8.4375 C5.09 8.4375 4.43 8.4375 3.75 8.4375 Z M5.75 11.4375 C5.75 12.4275 5.75 13.4175 5.75 14.4375 C6.74 14.6025 6.74 14.6025 11.75 15.4375 C11.75 14.1175 11.75 12.7975 11.75 11.4375 C9.77 11.4375 7.79 11.4375 5.75 11.4375 Z M-0.25 12.4375 C-0.58 13.0975 -0.91 13.7575 -1.25 14.4375 C0.07 14.4375 1.39 14.4375 2.75 14.4375 C2.75 13.7775 2.75 13.1175 2.75 12.4375 C1.76 12.4375 0.77 12.4375 -0.25 12.4375 Z M-10.25 62.4375 C-9.25 64.4375 -9.25 64.4375 -9.25 64.4375 Z M-15.25 71.4375 C-15.25 73.4175 -15.25 75.3975 -15.25 77.4375 C-14.59 76.7775 -13.93 76.1175 -13.25 75.4375 C-13.25 74.1175 -13.25 72.7975 -13.25 71.4375 C-13.91 71.4375 -14.57 71.4375 -15.25 71.4375 Z " transform="translate(950.25,193.5625)"/>
    <path d="M0 0 C0.99 0.99 1.98 1.98 3 3 C-2.80605 13.551379 -8.709896 24.044838 -14.6875 34.5 C-15.027631 35.094912 -15.367762 35.689825 -15.718201 36.302765 C-21.279229 46.024683 -26.883715 55.721191 -32.492676 65.415527 C-37.342579 73.817005 -42.083749 82.276114 -46.803467 90.751221 C-50.763781 97.843464 -54.821747 104.871983 -58.9375 111.875 C-64.639897 121.580303 -70.13874 131.387578 -75.581055 141.240723 C-80.565828 150.254484 -85.681747 159.184427 -90.880371 168.076172 C-92.605429 171.040292 -94.303095 174.019688 -96 177 C-99.947264 176.408373 -102.232917 174.453444 -105.3125 172 C-114.844369 164.599453 -125.411063 158.744419 -136 153 C-131.898913 148.099919 -127.625425 143.531338 -123.0625 139.0625 C-118.758076 134.802336 -114.546175 130.534301 -110.628906 125.910156 C-108.677623 123.621961 -106.651823 121.409009 -104.625 119.1875 C-101.495772 115.724699 -98.494997 112.19321 -95.5625 108.5625 C-91.699418 103.785715 -87.620886 99.260531 -83.460938 94.742188 C-81.089601 92.099841 -78.84747 89.393058 -76.625 86.625 C-72.238228 81.188203 -67.540101 76.096285 -62.777344 70.992188 C-60.056585 68.074167 -57.429062 65.084743 -54.820312 62.066406 C-52.526954 59.463002 -50.168223 56.92175 -47.8125 54.375 C-43.791972 50.021853 -39.896172 45.580801 -36.0625 41.0625 C-31.550028 35.746277 -26.905015 30.580053 -22.153076 25.477295 C-18.966691 22.054998 -15.85212 18.586119 -12.796875 15.046875 C-9.607925 11.414246 -6.315533 7.873946 -3.039062 4.320312 C-1 2 -1 2 0 0 Z " transform="translate(757,249)"/>
    <path d="M0 0 C13.390896 11.113192 13.390896 11.113192 14.574219 18.285156 C15.202543 27.091998 15.098445 35.804342 14.8125 44.625 C14.795219 45.21382 14.795219 45.21382 14.707764 48.193604 C14.685729 48.755272 14.685729 48.755272 14.574219 51.597656 C14.536433 52.601917 14.498647 53.606177 14.459717 54.640869 C14.093851 57.834393 13.19607 60.539462 12.125 63.5625 C11.722151 65.95063 11.368916 68.347593 11.0625 70.75 C10.222222 77.270833 10.222222 77.270833 9.125 80.5625 C8.135 81.2225 7.145 81.8825 6.125 82.5625 C5.464844 84.875 5.464844 84.875 5.0625 87.5625 C4.330832 92.356668 4.330832 92.356668 2.125 94.5625 C1.248343 98.178709 0.589444 101.81534 -0.09375 105.472656 C-0.351562 106.492305 -0.609375 107.511953 -0.875 108.5625 C-1.205 108.7275 -1.205 108.7275 -2.875 109.5625 C-3.477621 111.803357 -3.831072 114.04821 -4.214844 116.335938 C-4.976571 118.905075 -5.989483 119.720053 -7.875 121.5625 C-8.824219 123.824219 -8.824219 123.824219 -9.5625 126.25 C-9.813867 127.058242 -10.065234 127.866484 -10.324219 128.699219 C-10.505977 129.314102 -10.687734 129.928984 -10.875 130.5625 C-11.535 130.5625 -12.195 130.5625 -12.875 130.5625 C-13.1225 131.305 -13.37 132.0475 -13.625 132.8125 C-14.97965 135.792731 -16.385154 137.461693 -18.875 139.5625 C-19.535 139.5625 -20.195 139.5625 -20.875 139.5625 C-21.348086 138.55832 -21.821172 137.554141 -22.308594 136.519531 C-35.240666 109.575782 -54.119589 90.455057 -82.658203 80.262695 C-88.58981 78.389144 -94.728599 77.431103 -100.875 76.5625 C-99.818077 74.850711 -98.754157 73.143241 -97.6875 71.4375 C-97.09582 70.486172 -96.504141 69.534844 -95.894531 68.554688 C-93.875 65.5625 -93.875 65.5625 -91.34375 62.601562 C-88.842309 59.522257 -87.248266 56.643185 -85.5625 53.0625 C-82.587263 46.880803 -79.31484 40.941395 -75.867188 35.011719 C-75.209766 33.873477 -74.552344 32.735234 -73.875 31.5625 C-73.494727 30.960588 -73.114453 30.358677 -72.722656 29.738525 C-68.177959 22.220838 -65.791935 13.937931 -63.125 5.625 C-62.38633 3.351486 -61.645087 1.078829 -60.902771 -1.193497 C-60.444864 -2.598247 -59.989559 -4.003848 -59.53717 -5.410385 C-57.982545 -10.222409 -57.982545 -10.222409 -56.875 -12.4375 C-37.272897 -17.156525 -15.91699 -11.930917 0 0 Z " transform="translate(975.875,309.4375)"/>
    <path d="M0 0 C0.33 0.165 0.33 0.165 2 1 C-0.686326 4.567292 -3.422004 7.318827 -6.9375 10.0625 C-11.296035 13.550489 -15.43001 17.180759 -19.5 21 C-24.228499 25.423949 -29.080116 29.604513 -34.128906 33.664062 C-37.426161 36.346727 -40.653915 39.101778 -43.875 41.875 C-45.066371 42.899781 -46.257777 43.92452 -47.449219 44.949219 C-48.038804 45.456304 -48.628389 45.963389 -49.23584 46.48584 C-55.885198 52.192915 -62.568752 57.855605 -69.375 63.375 C-73.828163 66.997252 -78.173495 70.728676 -82.5 74.5 C-87.670286 79.006831 -92.899038 83.418074 -98.230469 87.734375 C-102.059234 90.86651 -105.825443 94.070652 -109.586426 97.283691 C-112.3273 99.617751 -115.088673 101.881396 -118 104 C-122.162827 102.370606 -124.914394 99.322179 -127.972656 96.1875 C-128.536979 95.617976 -129.101301 95.048452 -129.682724 94.46167 C-131.480811 92.64581 -133.272059 90.823397 -135.0625 89 C-136.857365 87.177485 -138.65368 85.35646 -140.452988 83.53833 C-141.570985 82.408111 -142.686299 81.27523 -143.798599 80.139404 C-146.106997 77.801295 -148.25498 75.830014 -151 74 C-151 73.34 -151 72.68 -151 72 C-146.692188 69.968288 -142.383908 67.937573 -138.075165 65.907837 C-136.518734 65.174635 -134.962359 64.441317 -133.406036 63.707886 C-124.511593 59.517165 -115.608358 55.348817 -106.675537 51.240479 C-89.319709 43.251537 -72.179602 34.830823 -55.020737 26.429443 C-46.816353 22.415267 -38.583395 18.463602 -30.332031 14.546875 C-26.25215 12.607706 -22.192555 10.629583 -18.136719 8.640625 C-16.979141 8.076016 -15.821563 7.511406 -14.628906 6.929688 C-12.379694 5.831888 -10.133453 4.727972 -7.890625 3.617188 C-6.889023 3.129922 -5.887422 2.642656 -4.855469 2.140625 C-3.964968 1.702666 -3.074468 1.264707 -2.156982 0.813477 C-1.445178 0.545029 -0.733374 0.276582 0 0 Z " transform="translate(825,367)"/>
    <path d="M0 0 C23.116345 0.435411 43.447706 10.960813 60.125 26.625 C69.821813 36.71093 80.356722 51.480115 82.378906 65.65625 C82.032598 71.616954 78.88843 76.894619 76 82 C75.34 82 74.68 82 74 82 C73.742188 82.895898 73.484375 83.791797 73.21875 84.714844 C72.000332 87.999104 70.747855 89.913901 68.5 92.5625 C65.15731 96.595727 61.886193 100.664932 58.6875 104.8125 C58.477383 105.081954 58.477383 105.081954 57.414062 106.445557 C55.549876 108.860833 53.859986 111.24232 52.332031 113.886719 C51.892461 114.584102 51.452891 115.281484 51 116 C50.34 116 49.68 116 49 116 C48.773125 116.721875 48.54625 117.44375 48.3125 118.1875 C46.730803 121.576851 44.798855 123.542469 42 126 C41.505 126.165 41.505 126.165 39 127 C38.71125 127.86625 38.4225 128.7325 38.125 129.625 C35.947889 136.156334 31.912825 140.31452 26.640625 144.578125 C24.450418 146.476304 22.797332 148.736693 21 151 C20.34 151 19.68 151 19 151 C18.782148 151.685781 18.564297 152.371562 18.339844 153.078125 C16.612924 156.844118 14.265361 159.637292 11.5625 162.75 C11.030439 163.366897 10.498379 163.983794 9.950195 164.619385 C5.127669 170.083629 -0.237468 174.552349 -6 179 C-9.424379 181.904856 -12.824043 184.824043 -16 188 C-17.558984 186.441016 -17.326892 184.775645 -17.542969 182.609375 C-21.673446 144.663089 -37.007419 107.107386 -67.207031 82.289062 C-69.123316 80.768826 -71.057441 79.27056 -73.015625 77.804688 C-73.670469 77.209141 -74.325312 76.613594 -75 76 C-75 75.01 -75 74.02 -75 73 C-73.15625 71.414062 -73.15625 71.414062 -70.5 69.625 C-57.05154 60.176595 -44.812187 49.404049 -33 38 C-32.480347 37.502261 -31.960693 37.004521 -31.425293 36.491699 C-25.665467 30.958118 -20.384431 25.231558 -15.410156 18.984375 C-12.005223 14.768217 -8.453335 10.682928 -4.896729 6.594482 C-1.105282 2.210564 -1.105282 2.210564 0 0 Z " transform="translate(865,396)"/>
    <path d="M0 0 C10.536658 5.845153 18.823857 15.507747 26 25 C26.404604 25.524326 26.809209 26.048652 27.226074 26.588867 C34.075953 35.506087 39.345787 44.775902 44 55 C44.235898 55.514336 44.235898 55.514336 45.429688 58.117188 C54.528941 78.971998 65.034259 112.276207 56.375 134.625 C55.629776 136.107604 54.836908 137.567151 54 139 C53.552695 139.826289 53.105391 140.652578 52.644531 141.503906 C51.658493 143.320015 50.660726 145.129796 49.652344 146.933594 C47.736201 150.489556 45.971633 154.096779 44.25 157.75 C43.956335 158.363835 43.662671 158.977671 43.360107 159.610107 C41.460449 163.685668 40.133135 167.667426 39 172 C39.542695 172.470508 40.085391 172.941016 40.644531 173.425781 C41.359961 174.048398 42.075391 174.671016 42.8125 175.3125 C43.520195 175.927383 44.227891 176.542266 44.957031 177.175781 C46.196404 178.282448 47.410927 179.419084 48.574219 180.605469 C56.290177 188.15231 71.359869 185.324117 81.429688 185.222656 C92.607707 185.002856 102.735755 183.667759 113 179 C113.747656 178.672578 114.495312 178.345156 115.265625 178.007812 C117.5119 177.008485 119.756654 176.005887 122 175 C122.799219 174.641641 123.598438 174.283281 124.421875 173.914062 C126.208388 173.107425 127.992065 172.294489 129.773438 171.476562 C132.231019 170.351906 134.69459 169.246353 137.164062 168.148438 C145.241537 164.51028 152.255641 160.837554 159 155 C165.414141 150 165.414141 150 169 150 C168.739587 151.522652 168.466027 153.043057 168.1875 154.5625 C168.03668 155.409414 167.885859 156.256328 167.730469 157.128906 C163.838841 172.424878 153.43919 189.95366 143.445312 202.121094 C142 204 142 204 140.5625 207.0625 C138.646478 210.664621 136.147423 212.887497 133.214844 215.6875 C130.825844 218.181835 128.92396 220.801147 126.9375 223.625 C122.653069 229.527328 117.688425 234.285461 112.228271 239.104004 C108.461865 242.461413 105.722246 245.703298 103 250 C95.214908 258.156654 85.28083 265.34425 75.058594 270.027344 C73 271 73 271 70 273 C72.133443 278.215083 74.329397 280.003764 79 283 C80.272371 284.269635 81.520636 285.563678 82.75 286.875 C91.238468 295.57406 101.820382 299.475333 113.4375 302.0625 C113.807098 302.147095 113.807098 302.147095 115.67749 302.575195 C117.783752 303.055859 119.891519 303.529179 122 304 C123.023516 304.230742 124.047031 304.461484 125.101562 304.699219 C127.066344 305.138955 129.032888 305.570812 131 306 C130.540641 310.994619 129.234461 313.449436 125.9375 317.1875 C122.787895 320.864526 119.805815 324.553794 117 328.5 C113.543133 333.325787 109.868317 337.92487 106.078125 342.492188 C104.660451 344.20299 103.262708 345.930458 101.882812 347.671875 C99.752412 350.306146 97.395364 352.604636 95 355 C87.056926 363.198553 80.707555 373.643379 76 384 C75.663555 384.710273 75.327109 385.420547 74.980469 386.152344 C68.617295 404.633433 73.835569 423.667911 80.5625 441.1875 C81.043412 442.457674 81.522323 443.728606 82 445 C82.399609 446.040273 82.799219 447.080547 83.210938 448.152344 C86.378791 457.121204 86.378791 457.121204 84.4375 461.625 C83.633125 462.40875 82.82875 463.1925 82 464 C81.46375 464.61875 80.9275 465.2375 80.375 465.875 C79 467 79 467 77 467 C76.734453 467.605859 76.468906 468.211719 76.195312 468.835938 C74.947212 471.09557 73.908949 472.082983 71.875 473.625 C68.813741 476.128514 66.473284 478.803957 64.0625 481.9375 C60.996374 485.903339 57.797901 489.02374 53.949219 492.207031 C51.098022 494.829676 48.898952 497.849028 46.640625 500.984375 C44.911683 503.108504 43.342594 504.580664 41 506 C35.393287 505.21506 31.230161 502.486328 26.527344 499.4375 C17.993423 494.583585 7.881694 494.918235 -1.546875 496.652344 C-9.263047 498.802904 -15.544532 502.320027 -22 507 C-22.831445 507.573633 -23.662891 508.147266 -24.519531 508.738281 C-46.078903 524.593756 -59.499017 555.156609 -63.929688 580.890625 C-64.705233 586.25295 -65.081643 591.580935 -65 597 C-64.200781 596.382539 -63.401562 595.765078 -62.578125 595.128906 C-55.975934 590.035498 -49.34485 584.987512 -42.65625 580.007812 C-40.831565 578.628565 -39.040896 577.203503 -37.28125 575.742188 C-35 574 -35 574 -33 574 C-33.651075 585.328698 -36.683514 593.324906 -42.049805 603.195312 C-43.334164 605.634671 -44.400261 608.134296 -45.4375 610.6875 C-45.628926 611.157363 -45.628926 611.157363 -46.597656 613.535156 C-47.06043 614.678555 -47.523203 615.821953 -48 617 C-56.600748 638.214602 -56.600748 638.214602 -62.175781 645.414062 C-66.852697 652.043866 -70.440865 659.642397 -73.93457 666.956543 C-76.632382 672.572999 -79.929308 677.690584 -83.375 682.875 C-87.279806 688.777825 -91.062086 694.719267 -94.678223 700.803711 C-98.446278 707.064779 -102.706902 712.940969 -107.640625 718.332031 C-109.35594 720.436743 -110.635956 722.648311 -112 725 C-113.735666 727.966991 -115.490052 730.92236 -117.25 733.875 C-117.702461 734.652305 -118.154922 735.429609 -118.621094 736.230469 C-121.422732 740.899866 -124.397222 744.588653 -128.344727 748.32959 C-130.898337 750.906552 -132.798548 753.831581 -134.75 756.875 C-138.597432 762.865811 -138.597432 762.865811 -142 764 C-142.2475 764.680625 -142.495 765.36125 -142.75 766.0625 C-144.2868 769.673979 -146.491428 771.989704 -149.148438 774.839844 C-151 777 -151 777 -152.914062 779.878906 C-155.076917 783.115087 -157.462739 786.058854 -160 789 C-160.477114 789.5576 -160.954229 790.1152 -161.445801 790.689697 C-162.453839 791.867273 -163.463137 793.043771 -164.473633 794.219238 C-165.96682 795.96129 -167.449609 797.71165 -168.929688 799.464844 C-174.618722 806.184205 -180.456837 812.728193 -186.478027 819.151855 C-189.881957 822.78375 -193.213257 826.460164 -196.4375 830.253906 C-197.686009 831.649115 -198.99419 832.990843 -200.320312 834.3125 C-202.738977 836.738216 -205.051468 839.221508 -207.351318 841.757812 C-211.995203 846.877173 -216.636457 851.621597 -222 856 C-222.825 856.86625 -223.65 857.7325 -224.5 858.625 C-227.46888 861.445436 -230.389274 863.088439 -234 865 C-236.213264 861.680104 -236.205797 860.38832 -235.609863 856.554688 C-234.252353 850.868144 -232.028938 845.44867 -229.9375 840 C-229.459481 838.735981 -228.982261 837.47166 -228.505859 836.207031 C-227.34504 833.134963 -226.176242 830.066189 -225 827 C-224.34 827 -223.68 827 -223 827 C-222.902031 826.394141 -222.804062 825.788281 -222.703125 825.164062 C-222.553594 824.326172 -222.404063 823.488281 -222.25 822.625 C-222.180391 822.218945 -222.180391 822.218945 -221.828125 820.164062 C-220.895663 816.601354 -219.587579 813.332197 -218.191406 809.928711 C-216.099727 804.786952 -214.149087 799.590143 -212.172089 794.403473 C-211.053031 791.46789 -209.931975 788.533072 -208.811081 785.59819 C-208.197483 783.991543 -207.58397 782.384863 -206.970535 780.778152 C-204.883893 775.313002 -202.795706 769.848444 -200.705612 764.384613 C-199.943364 762.391776 -199.181495 760.398794 -198.419998 758.40567 C-196.488338 753.352552 -194.548472 748.30286 -192.592041 743.259277 C-186.184269 726.70669 -186.184269 726.70669 -183.475754 718.606583 C-182.504238 715.702423 -181.495781 712.811725 -180.485138 709.92099 C-179.838459 708.014049 -179.252681 706.086785 -178.669678 704.159424 C-176.890656 699.106029 -175.421371 695.455296 -170.504883 693.007324 C-167.927979 691.912791 -165.327828 691.037121 -162.650635 690.223877 C-146.399202 684.775577 -136.310256 668.420886 -128.898438 653.953125 C-119.075573 634.177216 -115.880094 614.932857 -115 593 C-115.66 593 -116.32 593 -117 593 C-117.092813 593.707695 -117.185625 594.415391 -117.28125 595.144531 C-119.695921 604.737599 -128.325805 613.035136 -135 620 C-135.759258 620.834023 -136.518516 621.668047 -137.300781 622.527344 C-144.016437 629.660667 -153.135428 637.854542 -163 640 C-162.283349 628.214168 -160.797075 616.533491 -159.347656 604.820312 C-159.084601 602.677671 -158.821783 600.535001 -158.559189 598.392303 C-158.010385 593.919031 -157.459702 589.445995 -156.907471 584.973145 C-156.204527 579.279491 -155.50478 573.585451 -154.806268 567.891253 C-154.133646 562.409139 -153.459481 556.927216 -152.785156 551.445312 C-152.659126 550.419834 -152.533095 549.394356 -152.403246 548.337803 C-150.994361 536.883578 -149.558146 525.43499 -148 514 C-146.68 513.67 -145.36 513.34 -144 513 C-144.33 512.505 -144.33 512.505 -146 510 C-146 509.01 -146 508.02 -146 507 C-141.126758 510.710554 -137.82379 514.606563 -134.4375 519.6875 C-133.960789 520.392134 -133.484077 521.096768 -132.99292 521.822754 C-124 535.314449 -124 535.314449 -124 540 C-121.617987 537.815484 -120.128172 535.686104 -118.625 532.832031 C-118.197031 532.020566 -117.769063 531.209102 -117.328125 530.373047 C-116.889844 529.528066 -116.451563 528.683086 -116 527.8125 C-115.561719 526.986855 -115.123438 526.161211 -114.671875 525.310547 C-106.685759 510.047924 -107.122513 499.682244 -112.15625 483.445312 C-116.364933 470.605186 -121.910388 457.265694 -130.628906 446.816406 C-131.091196 446.237295 -131.553486 445.658184 -132.029785 445.061523 C-132.931418 443.941284 -133.865426 442.845916 -134.837402 441.786133 C-138.106157 437.68558 -138.158369 434.446308 -137.737793 429.291016 C-137.711686 428.962613 -137.711686 428.962613 -137.579572 427.300694 C-136.998585 420.327645 -136.193189 413.378303 -135.349356 406.432932 C-135.064357 404.086786 -134.784231 401.740098 -134.505203 399.393234 C-134.106976 396.046608 -133.707024 392.700195 -133.305664 389.353943 C-127.635136 342.025513 -127.635136 342.025513 -125.5 319.375 C-125.462229 318.980844 -125.462229 318.980844 -125.271088 316.986176 C-123.462541 297.953959 -122.824237 278.920485 -122.4375 259.8125 C-122.39415 257.779291 -122.350532 255.746088 -122.306641 253.712891 C-122.201342 248.808654 -122.099631 243.904355 -122 239 C-118.931144 240.475013 -116.592036 242.09847 -114 244.3125 C-105.488676 250.985043 -95.862201 254.468329 -85 254 C-77.158459 252.890709 -71.744109 248.147318 -66 243 C-65.309062 242.391562 -64.618125 241.783125 -63.90625 241.15625 C-42.189984 220.818795 -32.025332 187.907807 -30.875977 158.866211 C-30.419791 138.934863 -31.419068 120.907651 -38 102 C-38.657825 101.965598 -39.315649 101.931196 -39.993408 101.895752 C-57.719699 100.901452 -74.961874 99.170366 -91 91 C-88.202297 87.814295 -84.660638 85.76222 -81.125 83.5 C-73.553855 78.547799 -66.711925 73.055128 -60 67 C-59.223984 66.307773 -58.447969 65.615547 -57.648438 64.902344 C-45.017458 52.983292 -34.424386 37.565955 -27.023438 21.871094 C-21.592489 10.503427 -21.592489 10.503427 -16.1875 8.5 C-15.358633 8.278281 -14.529766 8.056562 -13.675781 7.828125 C-8.610146 6.260366 -4.361227 2.951705 0 0 Z M12 298 C11.01 307.24 10.02 316.48 9 326 C7.35 326.33 5.7 326.66 4 327 C-11.816381 333.303293 -23.971717 345.353949 -36 357 C-36.502251 357.485654 -37.004502 357.971309 -37.521973 358.47168 C-42.263814 363.079925 -46.802067 367.801357 -51.105469 372.820312 C-53.898563 376.03381 -56.783671 379.161792 -59.671631 382.289795 C-62.061316 384.879128 -64.433537 387.479665 -66.765625 390.121094 C-77.153493 401.831796 -87.863739 409.49058 -102 416 C-99.282707 419.231375 -96.591694 422.406372 -93.609375 425.398438 C-85.309514 433.868179 -79.469373 443.448501 -73.430176 453.611328 C-71.57131 456.715995 -69.640674 459.766338 -67.6875 462.8125 C-67.155117 463.643945 -66.622734 464.475391 -66.074219 465.332031 C-65.719727 465.882461 -65.365234 466.432891 -65 467 C-61.556867 463.006276 -59.153584 458.838879 -56.75 454.1875 C-56.386484 453.494629 -56.022969 452.801758 -55.648438 452.087891 C-54.760831 450.394431 -53.879741 448.697559 -53 447 C-52.609938 447.005237 -52.609938 447.005237 -50.635986 447.031738 C-47.028192 447.07386 -43.420449 447.099502 -39.8125 447.125 C-39.199229 447.133379 -39.199229 447.133379 -36.095703 447.175781 C-16.363289 447.27991 -5.093245 442.834868 9 429 C9.355781 428.656465 9.355781 428.656465 11.15625 426.917969 C22.927673 414.716436 27.88498 397.722618 30.101562 381.304688 C30.197527 380.620613 30.293492 379.936539 30.392365 379.231735 C30.875139 375.778997 31.316657 372.330258 31.686035 368.863525 C32.571544 362.187087 33.319167 357.838593 38.480469 353.253906 C39.973198 352.150382 41.478574 351.063612 43 350 C44.045129 349.02542 45.070935 348.029029 46.0625 347 C46.701875 346.34 47.34125 345.68 48 345 C40.922122 330.62694 31.170926 317.911281 20.59375 305.953125 C18.928508 304.057156 17.317724 302.111119 15.78125 300.109375 C15.487344 299.761328 15.487344 299.761328 14 298 C13.34 298 12.68 298 12 298 Z " transform="translate(778,477)"/>
    <path d="M0 0 C5.592494 1.627539 11.141133 3.360605 16.667969 5.199219 C38.866696 12.567691 61.391496 19.892655 84.656494 22.913086 C92.546601 24.025459 99.704334 26.890537 107 30 C104.20799 32.894941 101.29243 35.400746 98.125 37.875 C76.109556 55.834194 61.155816 77.089698 55 105 C54.781665 105.986133 54.56333 106.972266 54.338379 107.988281 C34.603276 199.872477 29.781813 296.438619 18.1875 438.75 C18.095121 439.92223 18.002741 441.09446 17.907562 442.302212 C17.281277 450.258399 16.660711 458.21502 16.042969 466.171875 C15.957607 467.26695 15.872246 468.362025 15.784298 469.490284 C14.784541 482.336874 13.841445 495.185578 12.973145 508.041748 C12.716555 511.778931 12.459283 515.516066 12.201929 519.253197 C11.964633 522.758795 11.740357 526.265059 11.516647 529.771545 C10.383869 546.713463 7.609744 561.912975 2 578 C1.54891 579.354143 1.100452 580.709165 0.654297 582.064941 C-5.860436 601.832464 -13.480917 621.012398 -22 640 C-25.875 638.25 -25.875 638.25 -27 636 C-27.108552 633.265058 -27.155682 630.554928 -27.159361 627.819263 C-27.164409 626.9591 -27.169458 626.098936 -27.17466 625.212706 C-27.190477 622.298484 -27.199093 619.384284 -27.207733 616.470032 C-27.217469 614.372085 -27.227607 612.274141 -27.238117 610.176198 C-27.265714 604.385597 -27.286779 598.594989 -27.306633 592.804357 C-27.324405 587.843301 -27.34583 582.882263 -27.367173 577.921221 C-27.565347 531.612419 -27.66949 485.303163 -27.751618 438.994026 C-27.763888 432.098556 -27.776631 425.203086 -27.789551 418.307617 C-27.790259 417.926659 -27.790259 417.926659 -27.793845 415.998778 C-27.840032 391.332773 -27.931004 366.667193 -28.046397 342.001422 C-28.164862 316.632651 -28.240559 291.26411 -28.261987 265.895062 C-28.265032 262.305578 -28.268548 258.716094 -28.272343 255.12661 C-28.273073 254.420213 -28.273803 253.713816 -28.274555 252.986014 C-28.287482 241.651784 -28.344756 230.318199 -28.418778 218.984222 C-28.49233 207.568978 -28.516588 196.154607 -28.495031 184.739071 C-28.484756 178.562565 -28.49513 172.387997 -28.563129 166.211815 C-29.049838 119.627944 -29.049838 119.627944 -15.713375 104.106569 C-12.552835 100.220733 -10.122843 95.856088 -7.5625 91.5625 C-6.494319 89.839013 -5.423107 88.117397 -4.347656 86.398438 C-0.100009 79.5673 4.071851 72.690224 8.243896 65.812744 C8.518185 65.360887 8.518185 65.360887 9.90625 63.074219 C10.425742 62.212319 10.945234 61.35042 11.480469 60.462402 C12.472693 58.854501 13.495223 57.264806 14.550781 55.697754 C15.018711 54.999565 15.486641 54.301377 15.96875 53.582031 C16.385762 52.982375 16.802773 52.38272 17.232422 51.764893 C18.239691 49.448879 17.860558 48.332037 17 46 C16.142973 44.559525 15.241695 43.145012 14.3125 41.75 C7.685138 30.905225 0 12.900835 0 0 Z " transform="translate(566,604)"/>
  </g>
</svg>
